<?xml version="1.0" encoding="UTF-8" standalone="no"?>
<svg
   id="Layer_1"
   width="100"
   height="26"
   viewBox="0 0 100 26"
   version="1.1"
   xmlns="http://www.w3.org/2000/svg"
   xmlns:svg="http://www.w3.org/2000/svg">
  <defs
     id="defs35" />
  <path
     d="M15 14.9H5.7v6h10.4v4.7H0V.4h15.6v4.7H5.7v5.2H15v4.6zM73.7 24.9c-1 .5-3.4 1.1-6.5 1.1C58.5 26 54 20.5 54 13.4 54 4.8 60.2 0 67.8 0c3 0 5.2.6 6.2 1.1l-1.2 4.5c-1.2-.5-2.8-.9-4.8-.9-4.5 0-8 2.7-8 8.3 0 5 3 8.2 8.1 8.2 1.7 0 3.6-.4 4.8-.8l.8 4.5zM83.8 19.7c1.5.8 3.9 1.6 6.3 1.6 2.6 0 4-1.1 4-2.7s-1.2-2.5-4.2-3.5c-4.2-1.5-6.9-3.8-6.9-7.4C83 3.3 86.6 0 92.6 0c2.8 0 4.9.6 6.4 1.3l-1.3 4.6c-1-.5-2.8-1.2-5.3-1.2s-3.7 1.1-3.7 2.4c0 1.6 1.4 2.3 4.7 3.5 4.5 1.6 6.6 4 6.6 7.5 0 4.2-3.3 7.8-10.2 7.8-2.9 0-5.7-.8-7.1-1.6l1.1-4.6z"
     id="path23" />
  <linearGradient
     id="SVGID_1_"
     gradientUnits="userSpaceOnUse"
     x1="22.924"
     y1="2.962"
     x2="42.953"
     y2="22.992">
    <stop
       offset="0"
       stop-color="#f68944"
       id="stop25" />
    <stop
       offset="1"
       stop-color="#f15647"
       id="stop27" />
  </linearGradient>
  <path
     fill="url(#SVGID_1_)"
     d="M43.2 3C41 1.5 37.5.2 32.9.2c-2.9 0-5.6.2-7.7.5v24.7c1.4.2 3.5.4 6.5.4 4.6 0 8.6-.9 11.6-3.2 2.5-2 4.2-5.4 4.2-10.2-.1-3.4-1.4-7.2-4.3-9.4zM32.9 21.4c-.7 0-1.5 0-2-.1V4.8c.5-.1 1.3-.2 2.6-.2 4.9 0 8 2.8 7.9 8 0 6-3.4 8.8-8.5 8.8z"
     id="path30"
     style="fill:#000000" />
</svg>
